<svg viewBox="0 0 1024 1024" xmlns="http://www.w3.org/2000/svg" width="32" height="32"><path d="M576.426667 182.784a187.221333 187.221333 0 1 1 264.746666 264.789333L610.133333 678.613333c-20.48 20.48-46.165333 35.029333-74.325333 42.112l-249.770667 62.421334L182.613333 886.613333a32 32 0 0 1-48.341333-41.642666l3.072-3.584 103.552-103.594667 62.378667-249.6a160.426667 160.426667 0 0 1 34.645333-66.389333l7.424-7.936z m219.477333 45.312a123.306667 123.306667 0 0 0-174.250667 0L390.656 459.093333a96.426667 96.426667 0 0 0-25.301333 44.629334l-36.522667 146.133333 247.552-247.509333a32 32 0 0 1 48.384 41.642666l-3.114667 3.584-247.552 247.552 146.176-36.522666a96 96 0 0 0 32.170667-14.72l6.997333-5.461334 5.418667-5.034666 231.04-231.082667a123.221333 123.221333 0 0 0 0-174.208z" fill="currentColor"/></svg>